<?xml version="1.0" encoding="UTF-8"?>
<svg version="1.1" viewBox="0 0 1066.7 1066.7" xml:space="preserve" xmlns="http://www.w3.org/2000/svg"><defs><clipPath id="a"><path d="m0 800h800v-800h-800z"/></clipPath></defs><g transform="matrix(1.3333 0 0 -1.3333 0 1066.7)"><g clip-path="url(#a)"><path d="m304.5 718.46c0.741-0.74-1.59-1.123-2.457-0.403-0.884 0.733-1.13 0.206-1.04-2.226 0.038-1.002-1.412-0.942-1.802 0.075-0.193 0.505-0.867 0.708-1.769 0.536-0.802-0.153-1.637 0.013-1.857 0.37-0.674 1.09-1.441 0.73-2.402-1.128-0.505-0.977-1.31-1.776-1.79-1.776s-0.873-0.532-0.873-1.183-0.234-1.183-0.522-1.183c-1.274 0-1.793-6.742-0.613-7.959 1.084-1.119 0.588-3.297-0.878-3.854-1.693-0.644-2.627-1.927-1.642-2.256 0.383-0.127 0.697-0.568 0.697-0.978 0-1.041 1.779-2.477 3.602-2.909 2.208-0.522 4.682-2.648 4.682-4.021 0-0.925-0.265-1.097-1.226-0.792-1.838 0.583-4.274-0.185-3.876-1.222 0.217-0.566-0.048-0.862-0.77-0.862-0.606 0-1.256-0.404-1.445-0.897-0.571-1.486-3.26-2.221-4.305-1.176-0.489 0.489-1.136 0.889-1.439 0.889-0.209 0-0.353-0.093-0.439-0.242l11.668-5.675c0.473 0.29 0.926 0.395 1.302 0.276 0.562-0.178 1.194-0.048 1.403 0.291s0.893 0.616 1.518 0.616c1.009 0 1.096 0.303 0.769 2.688l-0.369 2.689 1.553-0.708c0.752-0.342 1.505-1.013 1.803-1.58l7.828 38.022c-1.151-0.501-2.301-0.872-2.751-0.872-1.135 0-3.126-1.984-2.56-2.55" fill="#b4281c"/><path d="m388.85 729.49c-0.169-0.123-0.335-0.297-0.511-0.538-0.431-0.589-0.783-1.469-0.783-1.955 0-1.372-2.425-3.624-3.903-3.624-1.783 0-2.576-3.132-1.183-4.672 1.265-1.398 1.188-2.271-0.24-2.724-0.651-0.207-1.184-0.757-1.184-1.223 0-0.467-0.407-0.849-0.906-0.849-0.498 0-1.059-0.399-1.246-0.887-0.188-0.489-0.712-0.888-1.165-0.888-1.067 0-1.177-8.286-0.125-9.34 0.386-0.385 0.539-0.861 0.343-1.059-0.201-0.2-0.783-0.32-1.526-0.371l2.61-4.692z" fill="#ab8fa7"/><path d="m473.36 712.81c0 0.566 0.294 1.212 0.655 1.434 1.051 0.651-0.665 1.421-3.189 1.432-1.436 6e-3 -2.359 0.327-2.578 0.896-0.229 0.598-1.118 0.84-3.371 0.881l5.897-8.564c1.456 1.702 2.586 3.402 2.586 3.921" fill="#003ccc"/><path d="m475.97 757.65c-4.257 2.511-7.932 0.917-9.117-3.953-2.055-8.444-2.098-9.067-0.689-10.13 1.034-0.78 1.155-1.14 0.583-1.712-0.398-0.4-1.383-0.726-2.187-0.726-2.742 0-4.948-3.509-2.74-4.356 0.489-0.188 0.888-1 0.888-1.804 0-0.805 0.267-1.627 0.592-1.828 0.326-0.202 0.592-1.118 0.592-2.035 0-2.168 0.969-2.908 4.437-3.383 2.17-0.298 2.994-0.181 3.492 0.494 0.735 0.998 2.906 2.261 3.885 2.261 0.358 0 0.807-0.466 0.998-1.036 0.193-0.57 0.77-2.035 1.279-3.254 1.039-2.48 2.477-2.962 2.477-0.832 0 1.459 1.886 3.631 2.563 2.953 0.218-0.218 0.396 0.138 0.396 0.79 0 0.242 0.137 0.573 0.369 0.959l-1.281 14.222c-0.802 8e-3 -1.455 0.329-2.307 1.071l-1.537 1.337 1.625 1.296c1.51 1.205 1.568 1.406 0.811 2.822-0.66 1.234-0.674 1.698-0.069 2.426 0.188 0.227 0.41 0.4 0.625 0.507l-0.703 7.794c-0.458 0.498-0.716 0.314-1.701-0.657-1.045-1.031-1.158-1.479-0.623-2.478 0.984-1.84-0.229-2.181-2.658-0.748" fill="#003ccc"/><path d="m489.96 735.52c0.795 0.252 1.771 0.885 2.168 1.408 0.842 1.105 1.016 3.247 0.223 2.758-0.938-0.58-2.42 0.344-2.42 1.509 0 0.913-0.44 1.121-2.367 1.121-2.002 0-2.368 0.189-2.368 1.229 0 1.053-0.25 1.176-1.728 0.852-0.352-0.078-0.665-0.116-0.959-0.114l1.281-14.222c1.106 1.835 4.44 4.909 6.17 5.459" fill="#006ad4"/><path d="m482.32 753.8c1-0.618 3.994 1.18 4.354 2.617 0.453 1.803-1.131 3.647-3.131 3.647-0.808 0-1.816 0.465-2.24 1.035-0.133 0.178-0.245 0.322-0.348 0.433l0.703-7.794c0.256 0.128 0.5 0.161 0.662 0.062" fill="#006ad4"/><path d="m456.85 687.59c2.286 0.348 3.793 1.097 6.723 3.315 2.126 1.61 3.865 3.225 3.865 3.59s0.627 1.488 1.395 2.495c0.766 1.007 1.576 2.411 1.801 3.12 0.345 1.092 0.154 1.319-1.246 1.48-1.309 0.15-1.694 0.531-1.842 1.825-0.146 1.271 0.482 2.387 2.81 5 0.141 0.158 0.279 0.317 0.414 0.475l-5.897 8.564c-0.237 4e-3 -0.485 7e-3 -0.753 7e-3 -3.35 0-3.783 0.131-3.783 1.148 0 1.689-0.879 1.945-2.09 0.607-1.026-1.135-1.019-1.223 0.218-2.539 0.704-0.75 1.28-1.679 1.28-2.065 0-0.995-2.113-0.871-3.17 0.186-0.488 0.488-1.558 0.888-2.379 0.888s-1.705 0.362-1.966 0.803c-0.26 0.443-1.7 0.939-3.2 1.102-2.166 0.236-3.2 0.012-5.03-1.097-2.792-1.69-6.296-1.817-10.359-0.373-2.114 0.75-2.891 1.335-2.891 2.174 0 1.094-0.064 1.087-1.376-0.145-1.065-1.001-1.799-1.208-3.254-0.917-1.148 0.23-1.879 0.136-1.879-0.241 0-0.838-5.232-0.783-6.597 0.069-0.602 0.377-1.096 1.061-1.096 1.522 0 0.669-0.216 0.641-1.082-0.142-1.584-1.434-2.239-1.238-4.61 1.387-2.773 3.069-5.388 3.329-5.935 0.592-0.403-2.018-2.574-2.594-2.574-0.684 0 0.601-0.541 1.581-1.204 2.18-0.661 0.599-1.747 1.972-2.414 3.051-0.668 1.079-1.702 1.962-2.3 1.962-0.599 0-1.974 0.444-3.058 0.988-1.085 0.543-2.484 1.24-3.112 1.549-0.604 0.299-1.016 0.318-1.412 0.029l-9.819-32.822z" fill="#5898c4"/><path d="m376.42 701.36c-1.775-0.12-4.471 0.157-5.113 0.69-0.62 0.513-0.913 0.544-0.913 0.093 0-1.189-2.46-0.73-2.788 0.519-0.394 1.509-1.139 1.509-1.946 0-0.458-0.856-0.44-1.544 0.065-2.487 0.943-1.763 1.627-4.165 1.96-6.427l11.345 2.92z" fill="#b28e76"/><path d="m302.08 683.64c0.61-1.919 1.451-1.175 1.451 1.282 0 2.313 0.051 2.373 1.923 2.248 1.058-0.071 2.098-0.384 2.311-0.694 0.764-1.111 5.557 0.782 6.646 2.626 0.56 0.947 1.615 1.872 2.344 2.054 1.966 0.494 2.907 2.465 3.008 6.303 0.051 1.882 0.413 3.743 0.805 4.137 0.393 0.392 0.715 1.448 0.715 2.344 0 1.28 0.444 1.839 2.072 2.612 1.962 0.93 2.764 2.031 1.479 2.031-0.326 0-0.592 0.352-0.592 0.781 0 1.069 7.615 8.095 8.773 8.095 0.725 0 0.774 0.157 0.222 0.71-1.105 1.104-0.845 2.742 0.769 4.859 1.815 2.38 1.916 5.246 0.278 7.933l-1.197 1.963-1.681-1.415c-0.924-0.778-2.582-1.75-3.683-2.159-1.101-0.41-2.401-0.985-2.889-1.278s-2.033-1.083-3.432-1.755c-1.399-0.671-2.693-1.609-2.874-2.082-0.22-0.572-1.207-0.859-2.958-0.859-1.445 0-3.731-0.532-5.078-1.183-0.222-0.108-0.451-0.212-0.679-0.311l-7.828-38.022c0.039-0.075 0.073-0.149 0.095-0.22" fill="#b28e76"/><path d="m410.81 632.83 4.466 2.961c-0.598 0.09-1.312 0.127-2.02 0.09-2.045-0.106-2.67 0.06-2.522 0.666 0.109 0.443 4.258 4.604 9.221 9.247 4.964 4.643 9.025 8.665 9.025 8.939s0.173 0.986 0.384 1.583c0.256 0.719-0.299 0.438-1.655-0.84-2.216-2.089-4.209-2.446-5.644-1.01-0.672 0.672-1.565 0.816-3.375 0.545-2.01-0.301-2.658-0.151-3.54 0.824-1.39 1.536-0.796 2.451 1.592 2.451 2.219 0 3.033 1.038 3.643 4.647 0.353 2.09 0.751 2.669 2.293 3.33 1.025 0.44 2.831 1.22 4.012 1.732 1.182 0.513 2.289 1.465 2.458 2.118 0.171 0.652 0.802 1.348 1.403 1.546 0.6 0.198 2.29 0.992 3.755 1.765 1.465 0.772 4.393 2.257 6.509 3.299 2.378 1.171 5.541 3.518 8.287 6.15 4.019 3.855 4.732 4.298 7.526 4.683 0.077 0.011 0.151 0.022 0.227 0.034l-77.822 9.083z" fill="#6dc9cd"/><path d="m265.36 636.98c0.489 0.406 0.888 1.219 0.888 1.809 0 0.589 0.512 1.233 1.137 1.432 1.029 0.326 1.109 0.802 0.844 5.039l-0.292 4.679 1.67-0.119c1.541-0.107 1.686 0.064 1.861 2.207 0.138 1.692 0.812 3.031 2.476 4.922 1.258 1.429 2.453 3.351 2.655 4.272s0.885 2.142 1.518 2.715c0.632 0.572 1.15 1.444 1.15 1.937 0 0.494 0.417 1.359 0.928 1.923 0.782 0.864 0.806 1.221 0.153 2.266-0.426 0.682-1.11 1.24-1.519 1.24-1.091 0-0.927 3.553 0.222 4.823 0.898 0.992 0.895 1.099-0.049 1.46-0.645 0.248-1.481-0.072-2.283-0.875-0.701-0.701-0.944-1.266-0.543-1.266 0.398 0 0.724-0.266 0.724-0.591 0-0.327-0.367-0.592-0.816-0.592-0.448 0-1.146-0.4-1.552-0.888-0.423-0.51-1.713-0.888-3.031-0.888-1.262 0-2.294-0.266-2.294-0.591 0-0.809-1.547-0.745-2.934 0.122-0.984 0.614-1.392 0.453-2.939-1.166-1.624-1.7-1.965-3.69-0.633-3.69 0.739 0 2.955-4.622 2.955-6.164 0-0.85-0.604-1.789-1.551-2.409-1.39-0.911-1.515-1.281-1.204-3.555 0.3-2.187 0.187-2.581-0.815-2.843-0.98-0.255-1.163-0.82-1.163-3.572 0-2.115-0.314-3.58-0.888-4.155-0.489-0.488-0.888-1.113-0.888-1.39 0-0.276-0.448-1.142-0.996-1.924-1.269-1.812-1.857-11.449-0.778-12.749 0.146-0.174 0.406-0.362 0.731-0.538l6.567 7.535c0.149 0.827 0.372 1.322 0.689 1.584" fill="#c32500"/><path d="m283.11 683.14c1.01-0.838 1.179-2.708 0.296-3.255-0.326-0.201-0.592-1.067-0.592-1.923 0-1.501 0.032-1.516 0.89-0.409 0.869 1.122 0.92 1.111 2.219-0.442 1.503-1.797 2.684-2.086 3.186-0.776 0.188 0.488 0.847 0.887 1.465 0.887s1.705 0.668 2.414 1.484c0.335 0.385 0.678 0.679 1.012 0.884l-11.668 5.675c-0.271-0.468 0.035-1.509 0.778-2.125" fill="#c32500"/><path d="m379.03 696.67-11.345-2.92c0.39-2.659 0.295-5.126-0.441-6.133-0.691-0.945-0.951-0.975-2.213-0.261-0.785 0.446-1.985 1.424-2.667 2.175-1.576 1.74-2.389 0.901-2.753-2.843-0.142-1.465-0.458-3.112-0.702-3.659-0.361-0.805-0.071-1.03 1.526-1.183 1.446-0.139 1.949-0.463 1.889-1.219-0.06-0.772 0.238-0.95 1.193-0.71 2.025 0.508 4.467-2.454 4.079-4.947-0.292-1.883-0.392-1.948-2.747-1.776-2.017 0.148-2.476 0.411-2.632 1.51-0.239 1.684-2.474 1.874-2.474 0.212 0-1.182-2.49-2.198-3.641-1.487-0.405 0.25-0.492-0.041-0.245-0.82 0.514-1.619-0.365-2.052-1.935-0.953-0.813 0.57-1.28 1.524-1.28 2.617 0 2.137-1.936 3.449-3.354 2.272-0.501-0.416-1.155-1.397-1.453-2.179-0.433-1.14-0.801-1.335-1.861-0.983-0.726 0.241-2.253 0.471-3.392 0.51-1.958 0.068-2.097-0.057-2.554-2.295-0.266-1.302-0.849-3.661-1.298-5.243-0.768-2.711-0.749-2.891 0.335-3.175 1.247-0.326 1.428-1.151 0.555-2.214l71.187-28.139z" fill="#abc38b"/><path d="m339.62 660.96c-0.162-0.196-0.354-0.401-0.588-0.611-0.651-0.589-1.183-1.401-1.183-1.804s-0.4-0.886-0.888-1.073c-1.239-0.476-1.107-1.413 0.26-1.846 1.466-0.465 2.924-6.537 1.83-7.619-0.515-0.509-1.078-0.199-2.275 1.252-1.996 2.421-2.741 2.419-3.639-5e-3 -0.391-1.059-1.09-2.798-1.551-3.867-1.037-2.403-1.087-5.272-0.099-5.602 0.59-0.197 0.587-0.821-0.019-3.088-0.671-2.512-0.643-2.969 0.239-3.944 1.191-1.317 2.473-1.379 4.036-0.197 1.695 1.282 3.011 1.06 3.786-0.639 0.926-2.032 0.92-2.043-0.978-2.043-1.694 0-4.844-2.619-4.844-4.026 0-0.404-0.829-0.709-1.924-0.711-1.057-2e-3 -2.946-0.288-4.198-0.635-1.251-0.348-2.436-0.47-2.634-0.273-0.197 0.199-0.423 1.73-0.499 3.403-0.091 1.977-0.452 3.216-1.031 3.54-0.7 0.391-0.854 1.5-0.723 5.172 0.146 4.062 0.374 4.919 1.742 6.545 1.646 1.956 2.101 3.82 0.833 3.417-0.406-0.129-1.002-0.818-1.323-1.529s-0.932-1.293-1.359-1.293c-0.426 0-1.228-0.797-1.783-1.771-1.154-2.029-3.671-2.518-3.671-0.714 0 0.586 0.314 1.378 0.696 1.761 0.383 0.382 0.889 1.966 1.124 3.52 0.234 1.554 0.614 3.491 0.843 4.305 0.886 3.15 0.951 4.502 0.298 6.214-0.372 0.975-0.698 1.908-0.724 2.07-0.027 0.163-0.388 0.563-0.804 0.888-0.415 0.325-1.051 1.723-1.413 3.106-0.549 2.1-0.898 2.516-2.114 2.516-0.801 0-1.456-0.213-1.456-0.473 0-0.261-0.944-0.814-2.099-1.232l-2.098-0.758 0.306-3.479c0.173-1.964 0.056-3.632-0.268-3.834-0.316-0.194-0.575-0.862-0.575-1.482 0-2.328-3.868-3.151-4.687-0.997-0.284 0.746-0.943 1.71-1.465 2.143-0.522 0.434-0.949 1.439-0.949 2.235 0 1.599-0.909 3.59-1.671 3.722l-0.569-23.206c0.452-2e-3 0.944 0.023 1.5 0.071 1.648 0.141 1.748-1.146 0.2-2.547-1.07-0.968-1.082-1.177-0.218-3.79 0.504-1.522 1.147-3.019 1.428-3.328 0.282-0.309 0.513-1.133 0.513-1.831 0-0.699 0.55-1.767 1.22-2.373 0.691-0.625 1.1-1.564 0.943-2.163-0.225-0.867 0.095-1.059 1.76-1.059 1.832 0 1.974-0.115 1.422-1.149-1.047-1.955 0.365-1.957 2.591-2e-3 2.431 2.134 3.308 1.88 3.308-0.956 0-2.408 0.68-2.596 2.016-0.556 0.98 1.495 2.932 1.975 3.605 0.888 0.201-0.327 0.905-0.592 1.564-0.592 1.725 0 1.069-1.329-1.148-2.323-1.404-0.629-1.974-1.345-2.252-2.826-0.205-1.09-0.9-2.351-1.544-2.802-0.753-0.528-1.047-1.21-0.824-1.914 0.557-1.753 5.419-1.15 6.719 0.835 0.54 0.824 1.877 1.873 2.971 2.33 1.286 0.537 2.205 1.45 2.6 2.582 0.336 0.962 0.85 1.784 1.144 1.825 0.294 0.04 0.778 0.107 1.077 0.147 0.298 0.041 0.742 0.275 0.986 0.518 0.244 0.244 0.937 0.444 1.539 0.444 0.876 0 1.021-0.3 0.724-1.487-0.22-0.875-0.058-1.867 0.394-2.412 0.633-0.763 0.619-1.019-0.082-1.463-0.467-0.295-1.249-0.545-1.737-0.556-0.488-0.01-1.932-0.9-3.209-1.981-2.27-1.92-2.3-1.995-1.332-3.377 1.31-1.87 1.251-2.496-0.193-2.038-2.01 0.638-3.39-0.233-4.665-2.945-0.673-1.431-2.038-3.53-3.033-4.664-0.995-1.133-1.601-2.181-1.346-2.328s1.729-0.451 3.275-0.676c0.51-0.074 0.939-0.146 1.3-0.221l88.079 39.522z" fill="#c8c46c"/><path d="m302.94 586.13c0-0.304-0.533-0.721-1.184-0.928-1.007-0.319-1.291-1.018-1.083-1.797l6.732 3.021c-1.924 0.397-4.465 0.298-4.465-0.296" fill="#c8c46c"/><path d="m511.98 609c0.05 0.382 0.202 0.777 0.437 1.061 0.596 0.717 0.553 0.88-0.23 0.88-0.77 0-0.96 0.651-0.96 3.297 0 3.196-0.835 4.988-2.324 4.988-0.349 0-0.635 0.399-0.635 0.887 0 0.489-0.265 0.888-0.591 0.888s-0.592 0.538-0.592 1.196c0 0.64-0.474 1.28-1.256 1.726l-12.982-13.632z" fill="#0097de"/><path d="m505.83 623.92c-0.117 0.067-0.24 0.131-0.371 0.188-1.827 0.806-3.402 2.654-3.402 3.991 0 1.218-2.299 1.449-3.233 0.325-1.004-1.212-1.967-1.157-4.773 0.275-1.201 0.613-1.902 0.874-2.487 0.839l1.284-19.25z" fill="#008dde"/><path d="m492.85 610.29-1.284 19.25c-0.341-0.021-0.643-0.142-0.982-0.353-0.883-0.551-2.06-0.531-5.359 0.091-2.325 0.439-4.364 1.019-4.532 1.289-0.166 0.271-0.754 0.494-1.304 0.496-0.551 1e-3 -1.763 0.402-2.696 0.888-0.931 0.485-2.277 0.884-2.988 0.884s-1.546 0.247-1.855 0.55c-0.31 0.302-1.719 0.946-3.133 1.429-2.547 0.871-5.336 0.515-6.867-0.877-0.781-0.709-4.317-0.642-4.77 0.09-0.204 0.33-1.342 1.006-2.528 1.502-1.187 0.496-2.98 1.799-3.986 2.897-1.918 2.094-2.896 2.35-8.38 2.191-2.698-0.079-3.088-0.25-3.254-1.421-0.182-1.273-0.399-1.323-4.942-1.144-3.957 0.156-4.997-1e-3 -6.214-0.941-3.001-2.316-9.524-3.374-11.099-1.799-0.204 0.206-0.732 0.372-1.403 0.472l-4.466-2.961z" fill="#169ee2"/><path d="m300 661.24c-0.289 0-0.838-0.948-1.221-2.108-0.594-1.801-0.548-2.272 0.322-3.233 1.1-1.215 0.816-2.943-0.485-2.943-0.556 0-0.723-0.546-0.543-1.775 0.191-1.299 0.023-1.776-0.626-1.776-1.019 0-2.798 2.46-2.798 3.869 0 1.462-2.04 0.774-2.259-0.762-0.104-0.727-0.766-1.725-1.471-2.219-1.095-0.767-1.176-1.068-0.551-2.068 0.401-0.644 0.731-1.933 0.731-2.865 0-1.235 0.755-2.437 2.791-4.446 2.232-2.199 3.406-2.884 5.62-2.892l0.569 23.206c-0.026 4e-3 -0.053 0.012-0.079 0.012" fill="#ce620a"/><path d="m258.1 627.86c0.548-0.296 1.282-0.561 1.969-0.69 1.095-0.205 2.321-0.771 2.724-1.257 0.641-0.772 0.786-0.746 1.163 0.21 0.236 0.601 0.448 3.124 0.472 5.606 0.014 1.639 0.088 2.825 0.239 3.666z" fill="#ce620a"/><path d="m429.01 531.14-117.46 45.895c0.171-0.372-0.039-0.568-0.701-0.822-0.607-0.233-1.586-0.968-2.176-1.634-0.792-0.894-1.157-1.011-1.392-0.441-0.616 1.498-3.457 3.667-4.802 3.667-0.519 0-1.245-0.259-1.876-0.633l13.906-28.905c1.391 0.146 2.381 0.642 3.852 1.825 1.284 1.03 2.333 2.232 2.333 2.671 0 0.437 0.333 1.341 0.74 2.007 0.621 1.019 0.574 1.334-0.296 1.981-1.611 1.196-1.228 2.637 0.982 3.69 2.6 1.241 3.9 0.735 3.9-1.519 0-1.73 0.027-1.744 1.627-0.909 2.78 1.45 3.698 1.135 3.698-1.269 0-2.363-1.547-4.071-4.249-4.689-2.314-0.53-3.262-1.861-2.358-3.31 0.619-0.989 0.488-1.354-0.923-2.596-0.903-0.795-2.041-1.462-2.529-1.482-0.488-0.021-1.42-0.439-2.069-0.93-0.931-0.704-1.013-0.995-0.389-1.382 0.66-0.408 0.66-0.722-3e-3 -1.899-0.103-0.185-0.205-0.357-0.305-0.526l20.073-41.723z" fill="#dae262"/><path d="m410.81 632.83 18.2-101.68 63.842 79.152z" fill="#74e0e0"/><path d="m410.81 632.83-88.079-39.522c1.698-0.356 1.792-0.779 0.8-1.771-0.552-0.552-0.552-0.71 0-0.71 0.39 0 0.71-0.265 0.71-0.592 0-0.325-0.901-0.591-2.002-0.591-1.591 0-2.449-0.494-4.183-2.414-1.978-2.19-3.874-2.785-3.874-1.217 0 0.324-0.877 0.35-2.15 0.063-1.215-0.274-2.777-0.247-3.589 0.062-0.306 0.117-0.661 0.214-1.039 0.292l-6.732-3.021c0.396-1.474 2.563-3.232 4.936-3.232 1.056 0 2.251-0.401 2.657-0.888 0.404-0.488 1.07-0.888 1.479-0.888 0.408 0 1.071-0.396 1.473-0.88 0.159-0.191 0.268-0.347 0.33-0.481l117.46-45.895z" fill="#afdf7b"/><path d="m506.32 601.39c4.214 4.134 5.967 6.235 5.728 6.86-0.081 0.212-0.097 0.476-0.063 0.748l-19.133 1.291z" fill="#009be2"/><path d="m482.75 560.69c2.131 2.466 3.631 4.984 3.631 6.581 0 1.534 0.909 3.2 3.48 6.379 4.332 5.355 5.28 7.144 4.987 9.422-0.306 2.383 0.733 5.233 3.031 8.314 0.836 1.12 1.521 2.311 1.521 2.646s2.926 3.464 6.502 6.952c0.146 0.142 0.281 0.275 0.42 0.413l-13.468 8.899z" fill="#14b4ec"/><path d="m294.1 574.56 0.331 0.632c-0.19-0.129-0.286-0.329-0.331-0.632" fill="#df5e00"/><path d="m429.01 531.14 18.31-22.613c0.291 0.083 0.625 0.2 1.032 0.346 1.224 0.443 2.892 0.944 3.706 1.114 0.813 0.17 2.61 1.142 3.993 2.159l2.514 1.85-2.142 2.613c-1.183 1.443-2.651 2.613-3.28 2.613-1.598 0-4.043 2.624-4.043 4.339 0 0.788 0.398 1.765 0.886 2.169 1.223 1.015 1.129 3.502-0.147 3.957-2.148 0.766-2.601 1.471-1.485 2.317 1.367 1.037 3.151 1.03 4.649-0.019 1.099-0.77 1.354-0.69 2.845 0.888 0.9 0.954 1.971 1.734 2.383 1.734 0.409 0 1.199 0.502 1.753 1.116 0.556 0.613 1.729 1.264 2.608 1.447 2.047 0.427 5.129 4.296 4.969 6.238-0.08 0.965 0.457 1.985 1.576 2.989 0.933 0.838 2.007 2.648 2.386 4.02 0.556 2.012 1.118 2.692 2.891 3.512 2.75 1.27 5.94 3.981 8.334 6.757l10.104 49.606z" fill="#67d7ef"/><path d="m299.84 576.62c-0.81-0.754-2.089-1.184-3.526-1.184-1.014 0-1.572-0.03-1.881-0.241l-0.331-0.632c-0.034-0.22-0.043-0.493-0.043-0.838 0-1.016-0.381-1.859-0.937-2.072-1.415-0.543-0.719-1.667 1.858-3.005 2.217-1.15 2.629-2.227 0.947-2.474-1.701-0.25-1.477-1 0.942-3.155 1.383-1.233 2.515-2.66 2.515-3.171s-0.932-1.673-2.071-2.582c-1.324-1.056-2.071-2.162-2.071-3.061 0-1.369-0.097-1.396-3.509-1.011-3.507 0.397-3.509 0.397-3.72-1.255-0.406-3.176 1.812-5.944 3.451-4.305 0.407 0.406 2.095 0.393 5.224-0.042 3.288-0.457 4.807-0.46 5.258-9e-3 0.348 0.348 1.246 0.633 1.995 0.633 0.748 0 1.361 0.249 1.361 0.553 0 0.303 0.778 0.529 1.729 0.502 1.231-0.035 1.822-0.404 2.051-1.282 0.256-0.976 0.475-1.081 1.052-0.503 0.402 0.402 1.891 0.73 3.309 0.73 0.383 0 0.732 0.015 1.059 0.05l-13.906 28.905c-0.28-0.165-0.542-0.352-0.756-0.551" fill="#e88200"/><path d="m318.52 539.93c-1.202-2.02-2.187-2.955-3.101-2.955-1.175 0-2.616-2.096-3.01-4.377-0.163-0.944-0.828-2-1.479-2.35s-2.177-1.242-3.39-1.984c-1.213-0.743-2.508-1.35-2.877-1.35-1.272 0-6.621-4.986-7.433-6.928-0.448-1.071-1.163-1.948-1.59-1.948s-1.402-0.665-2.166-1.479c-1.883-2.003-2.96-1.896-2.96 0.295 0 2.364-1.62 2.364-5.121 0-2.859-1.929-5.3-2.388-4.724-0.887 0.432 1.127-0.254 1.134-1.728 0.019-0.632-0.478-2.014-0.877-3.072-0.887-1.132-0.012-1.924-0.324-1.927-0.759-1e-3 -0.406-0.411-1.522-0.909-2.477-0.498-0.954-0.791-2.035-0.65-2.401s-0.799-2.199-2.087-4.074c-1.88-2.735-2.205-3.577-1.642-4.255 1.018-1.228 1.492-1.08 3.934 1.224 2.334 2.202 4.317 2.707 4.317 1.101 0-0.534 0.398-1.267 0.886-1.627 0.487-0.361 0.985-1.526 1.107-2.587 0.179-1.575-0.127-2.234-1.668-3.587-2.5-2.195-2.865-3.316-1.484-4.565 0.123-0.112 0.231-0.211 0.333-0.299l2.2 0.262c0.599 0.396 1.406 0.99 2.553 1.83 0.545 0.398 1.18 0.351 1.976-0.145 0.976-0.61 1.544-0.527 3.404 0.498 4.218 2.326 4.537 2.92 4.424 8.22l-0.101 4.763 1.617-0.414c3.237-0.829 3.93-0.593 4.642 1.574 0.404 1.233 1.361 2.439 2.377 2.994 0.934 0.512 2.343 2.179 3.129 3.706 0.787 1.527 3.783 5.505 6.657 8.839 3.68 4.267 5.228 6.516 5.228 7.599 0 2.032 2.044 3.84 4.051 3.583 2.074-0.266 2.063-0.235 0.849-2.384-0.83-1.47-0.893-1.969-0.301-2.343 1.655-1.046 1.247-2.881-1.154-5.198-1.307-1.261-3.508-3.757-4.893-5.547-2.124-2.748-2.521-3.692-2.552-6.066-0.033-2.586 0.079-2.81 1.39-2.81 1.892 0 1.799-0.9-0.349-3.346-1.934-2.201-2.282-4.373-0.888-5.53 0.488-0.405 0.888-1.104 0.888-1.553 0-0.448 0.266-0.814 0.592-0.814 1.151 0 0.576-1.642-1.239-3.626l14.399 1.708c0.448 0.957 0.252 2.683-0.47 5.609-0.304 1.234-0.154 1.714 0.629 2.015 0.655 0.251 1.228 0.038 1.576-0.585 0.302-0.538 0.933-0.979 1.402-0.979s1.185-0.533 1.592-1.183c0.875-1.402 1.638-1.539 1.638-0.296 0 1.064 1.261 1.165 2.249 0.178 0.973-0.973 0.891-2.546-0.178-3.433-0.152-0.127-0.282-0.251-0.393-0.372l5.57 0.66z" fill="#e88200"/><path d="m338.59 498.21 66.153-43.621 13.636 43.017c-0.914 1.037-0.872 1.611 0.66 2.083l9.971 31.454z" fill="#dcf07c"/><path d="m474.3 479.31c0.191 1.052 0.015 1.28-0.819 1.062-0.589-0.154-1.523 0.235-2.105 0.879-0.442 0.488-1.059 0.818-1.602 0.892l4.496-3.254c-2e-3 0.14 4e-3 0.282 0.03 0.421" fill="#31bded"/><path d="m478.76 467.07c-0.366 1.705-1.065 3.873-1.553 4.817s-0.888 2.264-0.888 2.935c0 0.67-0.507 1.654-1.128 2.186-0.575 0.491-0.904 1.191-0.916 1.885l-4.496 3.254c-0.189 0.026-0.371 0.021-0.533-0.021-0.238-0.062-0.485-0.083-0.741-0.069l10.274-15.074c-6e-3 0.03-0.013 0.059-0.019 0.087" fill="#8bebdb"/><path d="m486.86 456.2c-0.164 2.105-0.377 2.398-1.943 2.666-0.262 0.045-0.513 0.118-0.752 0.215l2.959-4.342c-0.141 0.45-0.222 0.921-0.264 1.461" fill="#8bebdb"/><path d="m489.78 451.04c-0.165 0.168-0.318 0.327-0.465 0.483l3.364-4.934c-0.365 1.958-1.045 2.558-2.899 4.451" fill="#8bebdb"/><path d="m310.41 494.71c-1.096-1.162-2.427-2.112-2.959-2.112-0.614 0-0.965-0.498-0.965-1.369 0-1.516-2.02-6.04-2.955-6.618-0.327-0.202-0.596-1.294-0.596-2.424 0-1.132-0.369-2.648-0.821-3.369-0.451-0.72-0.993-2.293-1.203-3.494-0.287-1.633-0.891-2.497-2.403-3.431-1.112-0.687-2.204-1.835-2.427-2.551-0.224-0.716-0.604-1.436-0.846-1.598-0.241-0.163-0.619-1.373-0.84-2.691-0.043-0.263-0.078-0.5-0.105-0.719l5.511-2.788c0.753 0.151 1.22 0.05 1.638-0.298 0.625-0.518 1.41-0.373 3.374 0.623 3.353 1.699 3.561 2.07 3.184 5.648-0.27 2.558-0.094 3.363 1.131 5.168 2.186 3.222 4.487 7.484 4.04 7.484-0.218 0 0.187 0.543 0.899 1.206 0.81 0.756 1.296 1.918 1.298 3.106 9e-3 4.998 3.976 11.073 7.23 11.073 1.247 0 2.018 0.275 2.377 1.041l-14.399-1.708c-0.054-0.06-0.106-0.118-0.163-0.179" fill="#f38900"/><path d="m318.83 483.89c0.045-0.909 0.179-4.131 0.299-7.162 0.209-5.317 0.286-5.582 2.189-7.544 1.793-1.851 2.279-2.036 5.344-2.036 0.297 0 0.57 3e-3 0.826 0.01l3.653 10.215c-0.201 0.384-0.44 0.748-0.687 1.021-0.805 0.888-0.892 1.348-0.375 1.971 1.643 1.98 0.445 8.779-1.676 9.513-0.498 0.173-1.326 0.624-1.84 1.004-2.104 1.554-7.896-3.684-7.733-6.992" fill="#f38900"/><path d="m333.02 497.55c-0.849-0.935-0.471-1.754 1.215-2.75 0.941-0.556 1.894-1.742 2.119-2.639 0.01-0.04 0.021-0.077 0.031-0.116l2.205 6.165z" fill="#f38900"/><path d="m278.27 491.06-2.2-0.262c0.607-0.524 0.926-0.584 2.2 0.262" fill="#f38900"/><path d="m465.7 483.37c-0.843 0.664-1.789 1.585-2.868 2.784-2.456 2.733-5.362 4.664-7.015 4.664-0.439 0-0.797 0.417-0.797 0.927 0 1.633-3.691 4.88-5.917 5.207-1.14 0.167-2.631 0.474-3.313 0.681-1.25 0.38-1.455 0.196-5.336-4.774-1.144-1.465-1.618-1.608-5.571-1.673-2.985-0.049-4.398 0.157-4.567 0.667-0.137 0.408-0.593 0.741-1.014 0.741-0.422 0-1.078 0.375-1.46 0.835-0.382 0.461-2.079 1.02-3.771 1.244-2.109 0.28-3.588 0.889-4.705 1.937-0.396 0.374-0.726 0.702-0.984 0.993l-13.636-43.017z" fill="#b7f3bb"/><path d="m419.04 499.69c1.175 0.361 3.225 0.664 6.389 1.07 3.011 0.387 3.328 0.579 4.273 2.592 0.57 1.211 1.617 2.353 2.369 2.58 0.741 0.223 2.594 1.441 4.117 2.708 3.319 2.759 5.688 3.008 8.233 0.866 1.291-1.086 1.697-1.32 2.9-0.975l-18.31 22.613z" fill="#b7f3bb"/><path d="m214.37 455.71c-0.268-0.532-0.425-1.245-0.552-2.2-0.327-2.463-0.615-2.942-2.07-3.449-1.377-0.48-1.763-1.04-2.079-3.014-0.405-2.534-3.282-6.308-4.321-5.666-0.315 0.195-0.997-0.517-1.515-1.582-2.009-4.133-4.267-5.487-6.212-3.728-0.712 0.646-1.215 0.764-1.472 0.35-0.214-0.347-0.973-0.639-1.686-0.648-0.713-0.011-1.814-0.411-2.446-0.889-1.043-0.789-1.3-0.727-2.757 0.669-1.306 1.251-1.949 1.464-3.441 1.137-2.769-0.609-4.02-3.457-1.824-4.154 0.439-0.139 0.819-0.497 1.024-0.907l77.015 9.385z" fill="#ef3500"/><path d="m255.52 463.33c-0.803-0.115-1.63-0.176-2.444-0.172-2.47 0.01-3.735-0.28-4.588-1.052-1.043-0.943-1.468-0.982-3.691-0.336-1.382 0.402-3.276 1.116-4.211 1.586-1.944 0.981-3.069 0.413-3.992-2.013-0.295-0.777-1.05-1.547-1.679-1.711-0.663-0.174-1.302-1.023-1.52-2.02-0.454-2.061-1.806-2.889-4.552-2.786-1.443 0.055-2.197 0.434-2.583 1.299-0.56 1.257-4.405 2.475-4.976 1.576-0.166-0.261-1.234-0.483-2.373-0.494-2.737-0.023-3.927-0.292-4.538-1.505l47.664-14.696z" fill="#f43800"/><path d="m295.23 461.54c1.097-0.993 1.472-1.034 3.316-0.367 0.495 0.179 0.905 0.303 1.253 0.373l-5.511 2.788c-0.172-1.431 0.052-1.988 0.942-2.794" fill="#f77700"/><path d="m280.09 443.9c-0.154 0.097-0.328 0.189-0.523 0.278-1.687 0.768-1.944 2.603-0.611 4.366 0.478 0.631 0.877 1.592 0.887 2.134 0.011 0.543 0.278 1.075 0.594 1.183 0.831 0.286-0.689 4.348-2.248 6.007-0.713 0.759-1.125 1.551-0.914 1.761 0.209 0.21-0.999 0.218-2.685 0.018-2.874-0.34-3.178-0.247-4.884 1.498-1.865 1.909-2.233 2.065-4.433 1.891-0.702-0.055-1.805 0.468-2.452 1.162l-1.176 1.263-2.578-1.158c-1.002-0.45-2.24-0.783-3.545-0.97l6.517-22.324z" fill="#f77700"/><path d="m338.59 498.21-2.205-6.165c0.53-2.02 1.377-2.997 2.302-2.641 0.413 0.158 1.091-0.124 1.509-0.627 0.417-0.503 1.125-0.915 1.574-0.915s0.815-0.291 0.815-0.646c0-0.356 0.533-1.323 1.184-2.151 0.65-0.828 1.183-2.047 1.183-2.709 0-1.508 1.634-3.37 2.959-3.37 1.556 0 3.027-2.038 3.383-4.688 0.266-1.988 0.149-2.413-0.666-2.413-0.856 0-0.828-0.172 0.219-1.295 1.355-1.455 1.507-2.991 0.563-5.7-0.516-1.481-1.075-1.925-2.811-2.242-2.809-0.512-5.422-2.365-5.422-3.845 0-0.642-1.065-2.181-2.367-3.419-1.546-1.47-2.367-2.772-2.367-3.75 0-0.088-7e-3 -0.178-0.015-0.269l66.315 3.224z" fill="#f2da4a"/><path d="m330.75 470.47c0 0.797 0.415 1.607 0.921 1.802 0.569 0.218 0.775 0.721 0.538 1.313-0.211 0.527-0.458 1.563-0.546 2.304-0.051 0.422-0.253 0.971-0.524 1.483l-3.653-10.215c2.841 0.075 3.264 0.638 3.264 3.313" fill="#f2da4a"/><path d="m167.16 416.82c1.335-1.107 2.631-3.815 2.631-5.496 0-0.942 0.409-1.547 1.184-1.749 0.719-0.189 1.217-0.853 1.271-1.696 0.048-0.764 0.115-1.893 0.147-2.509 0.036-0.658 0.959-1.59 2.233-2.254l2.173-1.131-0.331-3.209c-0.371-3.594 0.333-5.008 2.495-5.008 1.835 0 5.151-1.452 6.307-2.761 0.527-0.596 1.138-1.931 1.358-2.967 0.404-1.902 1.59-3.299 2.973-3.502 0.415-0.061 1.32-0.29 2.011-0.509 0.802-0.255 1.257-0.144 1.257 0.306 0 1.101 3.319 0.203 5.557-1.504 1.073-0.818 2.383-1.488 2.91-1.488 1.141 0 2.184 1.749 2.184 3.663 0 1.085 0.498 1.529 2.358 2.11 1.297 0.404 2.73 0.735 3.185 0.735 1.218 0 1.544 2.805 0.558 4.784-0.825 1.652-0.783 1.786 1.091 3.497 1.072 0.978 2.394 1.779 2.939 1.779 0.544 0 1.808 0.932 2.808 2.071 1.001 1.14 2.217 2.072 2.704 2.072s1.789-0.793 2.894-1.764c1.565-1.374 2.171-2.532 2.748-5.248 0.406-1.917 0.566-4.03 0.354-4.696-0.211-0.665-0.107-1.382 0.232-1.592 0.338-0.21 0.616-1.65 0.616-3.201 0-3.453 1.87-5.69 4.257-5.091 0.887 0.223 1.687 0.062 2.056-0.412 1.346-1.735 1.305-2.847-0.168-4.598-1.034-1.229-1.378-2.159-1.11-3.003 0.214-0.673 0.097-1.574-0.259-2.003-0.473-0.57-0.431-1.195 0.158-2.329 0.442-0.852 0.945-1.409 1.117-1.237 0.414 0.414 4.083 0.608 6.065 0.461l23.909 73.665-77.015-9.385c0.098-0.198 0.159-0.407 0.159-0.612 0-0.657 0.406-1.144 0.952-1.144 1.64 0 3.617-2.377 3.31-3.978-0.381-1.995-1.701-2.328-3.295-0.83-1.933 1.816-2.742 1.576-2.742-0.813 0-2.037-0.041-2.071-2.476-2.071-1.72 0-2.891 0.388-3.83 1.27l-1.352 1.271-1.182-1.419c-0.649-0.78-1.189-1.868-1.2-2.418-0.027-1.384-1.083-1.907-2.116-1.05-0.607 0.504-0.862 0.519-0.862 0.052 0-0.366-0.634-0.665-1.407-0.665-1.985 0-3.034-1.383-1.816-2.394" fill="#fb6100"/><path d="m433.92 365.61 32.828 117.04c-0.333 0.194-0.682 0.43-1.051 0.721l-60.954-28.784z" fill="#d8f890"/><path d="m497.39 390.23c-0.075 2.681-0.272 4.73-0.47 4.729-0.447 0-0.494 0.55-0.449 5.216 0.025 2.652-0.198 3.324-1.418 4.284-0.959 0.756-1.572 1.988-1.821 3.66-0.612 4.146-0.523 5.09 0.585 6.198 1.01 1.009 1.01 1.067 0.01 1.26-0.669 0.128-0.95 0.578-0.776 1.24 0.149 0.573-0.083 1.68-0.517 2.462-1.071 1.932-1.023 4.073 0.117 5.333 0.869 0.958 0.869 1.159 0 2.397-1.21 1.726-1.21 4.28 0 6.126 0.779 1.187 0.88 2.473 0.572 7.227-0.203 3.127-0.307 4.962-0.543 6.229l-3.364 4.934c-1.245 1.317-1.876 2.214-2.193 3.216l-2.959 4.342c-0.764 0.308-1.391 0.86-1.74 1.564-0.402 0.811-1.242 1.891-1.865 2.399-0.614 0.499-1.405 2.257-1.78 3.936l-10.274 15.074c-0.534 0.028-1.114 0.223-1.757 0.597l-32.828-117.04z" fill="#c5f5c1"/><path d="m329.71 441.14c-1.593-1.147-2.515-2.269-2.515-3.061 0-0.686-0.799-2.159-1.776-3.27-0.976-1.113-1.775-2.679-1.775-3.482 0-1.654-0.691-1.877-1.775-0.571-1.295 1.561-2.801 1.065-4.093-1.182l-1.263-7.039c0.279-2.438 0.979-4.984 1.836-5.98 0.559-0.652 1.191-1.759 1.404-2.462 0.213-0.702 0.776-1.601 1.251-1.995 0.476-0.395 0.865-1.602 0.865-2.682s0.266-2.128 0.592-2.33c0.767-0.474 0.767-3.075 0-3.55-1.148-0.709-0.57-2.576 1.279-4.132l1.87-1.573 0.798 1.897c0.551 1.312 0.61 2.124 0.192 2.628-0.656 0.79-1.785 10.327-1.32 11.152 0.413 0.732 4.036 2.159 5.486 2.159 2.031 0 10.605-8.581 10.62-10.629 0.011-1.513 4.379-6.532 5.683-6.532 0.381 0 1.029-0.405 1.441-0.903 0.671-0.807 0.858-0.803 1.786 0.036 0.57 0.516 1.175 1.655 1.343 2.53 0.169 0.875 0.632 2.737 1.029 4.137 0.665 2.339 0.621 2.639-0.541 3.721-0.823 0.768-1.262 1.895-1.262 3.243 0 3.033 1.315 3.134 3.875 0.3 1.2-1.328 2.867-2.747 3.705-3.154 0.925-0.447 1.714-1.48 2.01-2.626 0.267-1.039 1.214-2.39 2.105-3 2.128-1.462 7.555-2.66 8.886-1.964 0.559 0.294 2.349 0.994 3.976 1.555 1.628 0.561 3.358 1.32 3.846 1.685 0.706 0.528 1.377 0.963 2.03 1.312l-49.43 37.359c-0.654-0.499-1.369-1.03-2.158-1.597" fill="#ffd100"/><path d="m395.94 394.32c-0.307-0.4-0.788-0.752-1.527-1.188-2.341-1.381-5.309-5.013-4.786-5.859 0.506-0.819-0.747-2.928-2.733-4.6-0.935-0.787-1.709-2.006-1.719-2.709-0.022-1.482-1.285-3.351-2.266-3.351-1.164 0-0.744-1.398 1.395-4.646 1.137-1.728 2.485-4.576 2.995-6.332 0.511-1.755 1.341-4.019 1.847-5.031 0.628-1.26 0.797-2.594 0.535-4.234-0.06-0.377-0.096-0.724-0.113-1.052l44.355 10.295z" fill="#ffd100"/><path d="m404.74 454.59-66.315-3.224c-0.073-0.762-0.436-1.604-0.873-1.966-0.488-0.405-0.887-1.189-0.887-1.743 0-0.84-1.588-2.466-4.795-4.916l49.43-37.359c1.935 1.034 3.706 1.304 5.724 0.925 3.434-0.644 4.673 0.139 4.673 2.955 0 1.123 0.354 2.524 0.786 3.116 0.662 0.905 0.998 0.963 2.116 0.365 0.8-0.429 2.228-0.56 3.591-0.33 1.378 0.234 2.414 0.135 2.653-0.251 0.217-0.348 1.153-0.634 2.084-0.634 3.62 0 4.775-1.932 2.381-3.983-0.652-0.558-1.184-1.354-1.184-1.77s-0.482-0.755-1.072-0.755c-1.224 0-4.846-3.316-4.846-4.437 0-0.409-0.399-1.076-0.887-1.481-0.488-0.406-0.888-1.645-0.888-2.755 0-0.934-0.11-1.518-0.497-2.025l37.983-28.707z" fill="#f9ed2d"/><path d="m286.08 374.96c0.703 0.58 1.461 1.268 2.275 2.065 2.159 2.118 3.925 4.221 3.925 4.676s0.266 0.828 0.591 0.828c0.326 0 0.593 0.899 0.593 1.998 0 1.1 0.413 2.342 0.92 2.763 1.614 1.34 2.194 2.919 1.415 3.858-0.446 0.537-0.604 2.084-0.429 4.198 0.184 2.212-8e-3 3.918-0.565 5.033-0.491 0.986-0.689 2.379-0.477 3.349 0.263 1.194 0.014 2.107-0.885 3.25-1.049 1.334-1.709 1.587-4.13 1.587-1.585 0-3.062 0.293-3.283 0.652-0.484 0.783-3.099 0.333-5.962-1.026-1.579-0.749-2.221-0.814-2.756-0.28-0.993 0.993 0.607 3.646 2.852 4.731 0.968 0.467 2.223 1.073 2.788 1.345 0.565 0.273 1.685 0.496 2.488 0.496s2.138 0.678 2.967 1.506c1.193 1.194 1.506 2.093 1.506 4.335 0 2.905-1.195 4.707-3.71 5.596-0.577 0.203-1.206 1.158-1.398 2.121-0.193 0.964-0.72 1.894-1.172 2.066-0.451 0.174-0.84 1.057-0.864 1.962s-0.553 2.445-1.177 3.421c-1.828 2.863-1.929 3.254-1.224 4.799 0.889 1.954 0.846 2.905-0.287 3.611l-18.051-2.891z" fill="#fd9d00"/><path d="m316.68 427.07c-0.349-1.018-0.369-2.747-0.163-4.532l1.263 7.039c-0.39-0.679-0.761-1.515-1.1-2.507" fill="#fd9d00"/><path d="m238.13 367.34c0.679-0.051 1.162-0.141 1.246-0.277 0.174-0.284 0.819-0.515 1.431-0.515 1.598 0 2.045-1.089 0.946-2.303-0.891-0.984-1.317-3.023-0.632-3.023 0.888 0 4.164 4.559 4.42 6.152 0.23 1.428 0.626 1.871 1.776 1.991 1.168 0.121 1.84-0.39 3.2-2.431 1.07-1.606 2.469-2.854 3.698-3.297 1.207-0.438 1.978-1.116 1.978-1.743 0-0.565 0.319-1.346 0.709-1.737 0.939-0.938 1.777-0.895 3.172 0.158 0.632 0.479 1.476 0.878 1.877 0.888 0.401 0.011 1.911 0.885 3.355 1.942 2.745 2.011 5.088 6.139 5.088 8.965 0 0.913 0.484 1.756 1.24 2.16 1.733 0.928 7.69 0.324 8.561-0.868 1.005-1.375 2.969-0.856 5.894 1.554l-24.05 66.049z" fill="#ff9300"/><path d="m517.69 356.66 0.081 0.56c-1 0.64-1.835 1.052-2.266 1.052-0.646 0-1.479 0.367-1.852 0.816-0.372 0.449-1.403 0.971-2.291 1.158-0.888 0.189-3.056 1.686-4.822 3.326-1.763 1.641-3.422 2.984-3.686 2.984-0.808 0-1.36 3.166-0.597 3.42 1.024 0.341 0.828 1.138-0.357 1.448-1.482 0.389-3.563 4.915-4.019 8.742-0.213 1.79-0.427 5.851-0.474 9.025-6e-3 0.354-0.014 0.702-0.022 1.039l-63.47-24.615z" fill="#cbf387"/><path d="m518.06 357.03c-0.096 0.065-0.191 0.126-0.285 0.187l-0.081-0.56z" fill="#96eaa2"/><path d="m519.08 356.32c-0.35 0.256-0.692 0.495-1.02 0.712l-0.366-0.373z" fill="#9ae292"/><path d="m433.92 365.61-44.355-10.295c-0.057-1.108 0.134-1.957 0.593-2.659 0.475-0.724 1.045-2.279 1.265-3.454 0.451-2.402 1.04-3.027 3.383-3.588 0.903-0.215 1.628-0.795 1.628-1.3 0-0.501-0.266-0.746-0.592-0.545-0.325 0.201-0.591-0.167-0.591-0.818 0-0.65-0.267-1.348-0.592-1.55-0.914-0.564-0.702-3.584 0.435-6.208 1.011-2.333 2.523-3.222 2.523-1.484 0 0.488 0.4 0.888 0.888 0.888s0.896 0.333 0.907 0.739c0.011 0.407 1.218 1.938 2.682 3.403 1.465 1.464 2.817 3.262 3.004 3.994 0.49 1.916 1.327 1.642 2.332-0.764 1.199-2.87 2.486-3.236 4.131-1.173 1.722 2.162 2.845 1.679 3.769-1.62 0.961-3.431 0.652-5.28-1.017-6.11-0.746-0.369-2.032-1.306-2.857-2.083-1.339-1.258-1.481-1.795-1.309-4.956l0.193-3.544-2.935-0.133c-3.671-0.166-5.823-1.672-6.275-4.386-0.184-1.104-0.636-2.562-1.004-3.238-0.8-1.475-1.091-5.946-0.505-7.756 0.249-0.769 1.251-1.57 2.463-1.97 1.123-0.37 2.042-0.853 2.04-1.071-3e-3 -0.488-2.972-3.689-4.841-5.222-1.857-1.523-4.958-5.563-5.443-7.09-0.217-0.684-0.128-1.947 0.199-2.806 0.326-0.86 0.716-2.909 0.866-4.554l0.272-2.991-2.676-1.147c-1.281-0.55-2.739-1.011-3.499-1.121l17.475-11.029z" fill="#ffce00"/><path d="m517.69 356.66-111.22-88.686 107.17-27.733z" fill="#f0d03c"/><path d="m433.92 365.61-27.443-97.641 111.22 88.686z" fill="#f6e63a"/><path d="m513.65 240.24 22.991 34.832c-0.542 0.757-0.967 1.452-1.176 1.977-0.629 1.573-0.161 3.111 0.945 3.111 0.33 0 1.281-0.79 2.334-1.9l6.956 10.539c-0.44 0.956-1.032 2.222-1.635 3.492-2.143 4.518-3.674 12.974-2.948 16.278 0.224 1.022 1.188 2.747 2.143 3.832l1.734 1.977-1.734 1.235c-0.955 0.679-2.154 1.236-2.668 1.236-1.034 0-2.013 2.864-1.184 3.466 0.288 0.208 0.59 1.233 0.67 2.274 0.12 1.55-0.224 2.178-1.895 3.451-2.105 1.607-3.265 4.467-4.186 10.336-0.469 2.985-1.788 5.917-2.661 5.917-0.316 0-0.576 0.626-0.576 1.391 0 1.683-3.225 6.302-4.399 6.302-0.463 0-1.46 0.78-2.215 1.734-1.114 1.404-3.191 3.232-5.065 4.6l-1.386 0.339z" fill="#c7df6f"/><path d="m406.48 267.97-17.475 11.029c-0.112-0.017-0.21-0.025-0.289-0.025-1.755 0-2.558-2.073-1.549-4.005 2.476-4.752 3.042-7.041 2-8.083-0.727-0.728-1.329-0.347-4.446 2.812-1.983 2.01-3.879 4.386-4.215 5.281-0.541 1.447-0.907 1.628-3.292 1.628-1.928 0-2.961-0.325-3.671-1.154-0.543-0.634-1.236-0.999-1.539-0.811-0.304 0.188-0.759 7e-3 -1.012-0.402-0.271-0.438-0.777-0.547-1.234-0.265-0.425 0.263-2.677 0.513-5.004 0.556-4.01 0.074-4.339 0.187-6.326 2.174-2.749 2.749-4.482 3.228-4.949 1.365-0.368-1.464-2.807-2.647-5.458-2.647-0.822 0-1.914-0.375-2.428-0.835-0.513-0.459-1.995-0.924-3.293-1.032-3.106-0.261-3.38 1.018-0.839 3.912 2.365 2.693 1.843 3.343-2.796 3.476l-3.473 0.101-0.196 2.071c-0.107 1.139-0.556 2.275-0.997 2.523-0.541 0.304-0.695 1.105-0.474 2.468 0.313 1.934 0.209 2.073-2.554 3.38-4.954 2.344-12.053 1.274-12.053-1.818 0-0.552-0.567-1.613-1.261-2.357-0.979-1.052-1.659-1.275-3.043-0.998-0.574 0.116-1.105 0.108-1.568 0.016l0.979-3.853c0.1-0.175 0.16-0.363 0.16-0.56 0-0.026 1e-3 -0.05 1e-3 -0.075l0.549-2.16c0.353-0.471 0.873-0.708 1.563-0.708 1.425 0 2.62-1.496 2.62-3.279 0-0.543 0.799-2.172 1.775-3.619 0.977-1.446 1.776-2.864 1.776-3.15s0.599-0.606 1.331-0.71c1.102-0.157 1.343-0.579 1.395-2.454 0.096-3.393-1.619-6.331-4.808-8.312l2.345-9.227c0.044 0.027 0.079 0.054 0.095 0.082 0.419 0.676 3.63 0.608 6.299-0.133 1.778-0.494 2.219-0.899 2.219-2.04 0-0.782 0.31-2.105 0.689-2.937 0.592-1.298 0.508-1.707-0.591-2.877-1.582-1.683-1.59-1.465 0.198-5.374 2.109-4.611 1.968-6.426-0.655-8.427-1.044-0.797-1.752-1.472-2.179-2.193l2.564-10.086z" fill="#feb200"/><path d="m539.74 277.15c3.202-3.796 3.948-4.189 6.485-3.411 1.685 0.518 2.383 0.43 4.084-0.518 1.128-0.629 2.406-1.788 2.839-2.575 0.759-1.382 0.775-1.362 0.444 0.565-0.19 1.099-0.344 2.466-0.344 3.04s-0.931 2.398-2.071 4.054-2.091 3.35-2.114 3.765c-0.024 0.414-0.554 1.553-1.177 2.529-0.624 0.976-1.296 2.175-1.493 2.663-0.088 0.216-0.342 0.78-0.691 1.538l-6.956-10.539c0.326-0.345 0.662-0.719 0.994-1.111" fill="#d3bf53"/><path d="m556.08 225.44c0.44 0.386 1.037 1.092 1.584 1.897 1.322 1.944 1.502 2.82 1.502 7.348 0 5.45-0.418 7.66-1.207 6.383-0.892-1.446-2.314 0.05-3.238 3.412-0.52 1.886-1.194 4.035-1.498 4.774-0.373 0.906-0.301 2.075 0.222 3.591 1.146 3.326 0.128 6.241-2.268 6.501-2.12 0.229-3.847 1.645-3.847 3.154 0 0.601-0.246 1.091-0.547 1.091-0.3 0-1.166 1.256-1.922 2.789-0.83 1.68-1.882 2.914-2.648 3.106-1.039 0.261-3.879 3.224-5.57 5.586l-22.991-34.832z" fill="#d3bf53"/><path d="m312.7 283.36c0.624-0.156 1.091-0.481 1.32-0.881l-0.979 3.853c-1.996-0.396-2.743-2.368-0.341-2.972" fill="#fe9400"/><path d="m328.8 224.32c-0.716-1.21-0.634-2.547 1e-3 -4.801 0.427-1.515 0.676-3.062 0.754-4.49l1.809-0.795z" fill="#fe9400"/><path d="m314.73 279.68-0.549 2.16c9e-3 -0.962 0.193-1.683 0.549-2.16" fill="#fe9400"/><path d="m319.52 256.96c-1.78-0.936-3.644-2.06-4.142-2.497-0.499-0.438-2.033-0.788-3.41-0.781-2.023 0.01-3.017-0.407-5.178-2.178-1.47-1.206-2.674-2.44-2.674-2.743 0-0.305-0.27-0.553-0.6-0.553-0.783 0-4.095-3.644-4.117-4.53-0.02-0.803 6.709-0.392 8.471 0.518 0.821 0.423 1.418 0.257 2.405-0.671 1.288-1.209 2.862-1.684 2.569-0.774-0.081 0.253 0.679 1.466 1.69 2.694 1.674 2.036 2.113 2.242 4.91 2.304 1.517 0.035 2.893 0.241 3.279 0.479l-2.345 9.227c-0.277-0.172-0.56-0.339-0.858-0.495" fill="#fe9400"/><path d="m406.48 267.97-0.579-105.44 107.75 77.708z" fill="#fb9b00"/><path d="m331.37 214.24 74.53-51.709 0.579 105.44z" fill="#ffa300"/><path d="m298.14 187.56c-4.69 0.472-6.548 0.063-6.016-1.323 0.277-0.722 0.123-0.86-0.622-0.56-0.544 0.219-1.405 0.565-1.913 0.771-0.614 0.247-1.026-0.023-1.232-0.81-0.19-0.726-1.212-1.479-2.657-1.955-1.291-0.427-2.58-1.191-2.864-1.7-0.627-1.12-6.36-1.432-7.709-0.42-2.503 1.878-3.47 2.141-4.409 1.203-0.503-0.504-1.078-1.564-1.277-2.354-0.275-1.099-0.755-1.438-2.037-1.438-0.922 0-1.843-0.27-2.048-0.602-0.204-0.33-0.605-0.456-0.893-0.278-0.286 0.178-1.696-0.23-3.132-0.905-1.436-0.676-2.848-1.184-3.136-1.13-1.107 0.204-2.86-0.15-2.153-0.435 0.457-0.185 0.601-0.845 0.379-1.728-0.335-1.334-0.199-1.431 2-1.431 1.331 0 2.667-0.372 3.066-0.853 0.389-0.467 1.286-0.934 1.995-1.035 1.16-0.165 1.289-0.538 1.289-3.734v-3.551l-2.519-0.335c-3.02-0.403-5.337-2.791-3.694-3.807 0.325-0.201 0.591-0.99 0.591-1.754 0-1.034 0.267-1.319 1.038-1.118 0.879 0.23 2.466-0.986 3.563-2.354l37.529 33.477c-0.695-0.047-1.675 0.012-3.139 0.159" fill="#fd7700"/><path d="m329.56 215.03c0.047-0.874 0.031-1.703-0.049-2.453l1.858 1.658z" fill="#fd7700"/><path d="m513.65 240.24-107.75-77.708 101.69-40.732z" fill="#f56500"/><path d="m612.77 193.47c-0.231 0.919-0.791 1.479-1.48 1.479-0.688 0-1.249 0.561-1.479 1.479-0.205 0.813-0.633 1.479-0.953 1.479-0.319 0-0.581 0.401-0.581 0.888 0 0.513-0.534 0.888-1.265 0.888-1.43 0-2.828 1.538-2.858 3.142-9e-3 0.588-0.254 0.925-0.543 0.745-0.764-0.472-1.918 1.142-1.533 2.146 0.35 0.911-1.898 2.252-3.776 2.252-0.575 0-2.399 0.652-4.052 1.451-1.654 0.797-4.434 1.609-6.177 1.805-0.592 0.065-1.248 0.142-1.897 0.222l26.68-18.259c-0.033 0.091-0.063 0.185-0.086 0.283" fill="#bc5024"/><path d="m507.58 121.8 63.314 89.874c-0.11 0.013-0.224 0.027-0.343 0.042-1.546 0.2-3.41 0.534-4.143 0.744-0.988 0.281-1.331 0.133-1.331-0.577 0-0.593-0.507-0.962-1.331-0.973-0.959-0.01-1.622-0.644-2.367-2.264-0.57-1.238-1.035-2.546-1.035-2.911 0-0.362-0.545-1.041-1.211-1.507-1.051-0.736-1.085-0.895-0.258-1.213 0.523-0.201 0.783-0.637 0.578-0.97-0.207-0.333-0.595-0.47-0.864-0.304s-0.648-0.113-0.843-0.62c-0.217-0.564-0.641-0.741-1.098-0.455-0.408 0.257-1.169 0.398-1.687 0.313-0.521-0.087-1.285 0.253-1.7 0.753s-1.558 0.91-2.541 0.91c-1.952 0-3.347 1.361-3.376 3.291-0.024 1.563-2.894 4.323-5.111 4.916-1.829 0.489-2.76 2.444-1.165 2.444 0.512 0 0.931 0.363 0.931 0.808 0 1.586 11.606 11.027 13.557 11.027 0.112 0 0.295 0.115 0.518 0.312l-42.428 14.8z" fill="#e07000"/><path d="m340.03 130.75 65.864 31.777-74.53 51.709z" fill="#f80"/><path d="m331.37 214.24-1.858-1.658c-0.148-1.382-0.509-2.494-1.078-3.115-0.608-0.662-1.284-2.059-1.505-3.1-0.22-1.043-0.878-2.508-1.462-3.255-0.584-0.748-1.23-1.897-1.435-2.553-0.609-1.946-5.814-6.564-8.369-7.424-1.302-0.44-2.802-1.156-3.333-1.592-0.559-0.46-1.567-0.644-2.393-0.437-0.96 0.242-1.932-0.04-2.974-0.859-0.85-0.669-1.938-1.217-2.417-1.217-0.478 0-1.219-0.422-1.646-0.935-0.348-0.42-0.772-0.638-1.619-0.697l-37.529-33.477c0.793-0.988 1.33-2.058 1.156-2.72-0.248-0.947 0.266-1.611 2.318-2.997 1.45-0.978 2.838-1.779 3.083-1.779 0.246 0 1.35 0.666 2.453 1.479 2.047 1.512 4.383 1.933 5.017 0.908 0.195-0.315 1.209-0.418 2.254-0.229 1.932 0.351 5.109 3.355 5.139 4.86 0.013 0.636 0.915 0.73 4.306 0.45 9.922-0.82 9.8-0.778 11.367-3.868 1.836-3.625 2.454-4.08 5.849-4.302 2.358-0.154 3.003-0.459 3.818-1.806 0.908-1.503 0.908-1.692 9e-3 -2.591-0.9-0.9-1.1-0.878-2.744 0.292-1.709 1.217-1.836 1.226-3.551 0.241-1.306-0.749-1.84-1.55-2.011-3.016-0.197-1.682 0.061-2.222 1.633-3.421 1.898-1.447 5.227-1.917 5.897-0.832 0.444 0.717 3.063 0.789 3.491 0.098 0.168-0.274 1.249-0.531 2.402-0.574 1.673-0.064 2.096 0.142 2.096 1.013 0 1.875 1.53 2.616 4.551 2.202 3.806-0.521 5.215-1.761 6.208-6.307l11.543-0.268z" fill="#fd7400"/><path d="m599.92 126.9c3.034 3.135 5.029 4.734 5.904 4.734 1.684 0 4.063 2.362 4.568 4.536 0.215 0.923 0.729 2.224 1.142 2.89 0.413 0.665 1.037 3.037 1.384 5.269 0.457 2.934 1.1 4.649 2.316 6.186 0.927 1.17 2.033 2.983 2.456 4.03 0.425 1.048 1.142 2.211 1.595 2.587s0.824 1.442 0.824 2.368c0 0.928 0.496 2.569 1.104 3.65 1.58 2.814 1.56 13.188-0.027 14.893-0.754 0.809-1.077 2.074-1.077 4.233 0 2.192-0.256 3.178-0.887 3.421-0.489 0.188-0.888 0.73-0.888 1.207 0 0.476-0.799 1.434-1.775 2.129-0.977 0.696-1.776 1.646-1.776 2.113 0 0.465-0.37 0.846-0.823 0.846-0.399 0-0.863 0.517-1.108 1.197l-26.68 18.259c-1.261 0.155-2.496 0.318-3.195 0.424-1.444 0.221-1.922 0.072-1.922-0.594 0-0.627-1.585-0.764-3.258-0.568l21.818-84.121c0.102 0.103 0.2 0.203 0.305 0.311" fill="#c22c00"/><path d="m599.14 126.1c0.154 0.156 0.312 0.316 0.473 0.482l-21.818 84.121c-1.557 0.183-3.19 0.653-3.695 1.29-0.545 0.685-0.741 0.722-0.741 0.143 0-0.563-0.611-0.686-2.467-0.467l-63.314-89.874z" fill="#d54200"/><path d="m335.05 100.55c-0.232 0.1-0.42 0.257-0.545 0.47-0.275 0.47-1.732 0.988-3.235 1.152-1.505 0.164-3.635 0.752-4.734 1.306-1.92 0.968-5.484 1.414-14.427 1.805-2.278 0.1-5.473 0.254-7.101 0.344-3.908 0.214-5.582-0.353-5.214-1.763 0.178-0.678-0.194-1.429-0.978-1.978-1.104-0.775-1.215-1.253-0.88-3.775l0.382-2.889-0.525-0.443 32.707-21.803z" fill="#fa6200"/><path d="m328.49 131.02c0.157-0.72 0.304-1.521 0.449-2.417 0.634-3.938 1.392-5.258 3.017-5.258 1.241 0 4.37-3.777 4.904-5.917 0.092-0.372 0.37-0.744 0.792-1.11l2.381 14.434z" fill="#fa6200"/><path d="m405.9 162.53-65.864-31.777 14.806-18.668c1.546 0.143 2.539 0.573 2.539 1.376 0 0.409 0.772 1.591 1.717 2.625 0.944 1.032 1.809 2.097 1.923 2.363 0.113 0.265 1.975 1.228 4.138 2.138 3.547 1.493 4.174 1.589 6.432 0.981 1.815-0.489 2.93-0.498 4.058-0.032 2.467 1.018 4.317 1.393 7.177 1.455l2.662 0.059-0.181-2.367c-0.227-2.963-2.508-5.301-4.648-4.764-1.756 0.441-3.637-0.499-5.421-2.707-0.756-0.936-1.637-1.701-1.958-1.701-1.109 0-6.138-4.21-7.088-5.934-0.524-0.95-1.124-1.558-1.332-1.349-0.208 0.208-0.378 0.085-0.378-0.273s-0.304-1.401-0.675-2.317c-0.073-0.178-0.138-0.386-0.199-0.606l29.582-37.3z" fill="#ff7200"/><path d="m405.9 162.53-12.71-98.798 114.4 58.066z" fill="#fc6300"/><path d="m393.19 63.732 130.57-0.288-16.178 58.354z" fill="#f23700"/><path d="m523.76 63.444 29.929 24.695c-0.08 0.013-0.156 0.031-0.238 0.044-1.992 0.297-2.574 0.638-2.574 1.502 0 0.738 0.42 1.117 1.24 1.117 0.682 0 1.985 0.438 2.895 0.975 1.286 0.76 1.73 0.881 3.515 0.353l13.952 11.512c0.032 0.166 0.065 0.326 0.099 0.472 0.649 2.844 0.395 4.438-0.703 4.438-0.445 0-0.966 0.256-1.158 0.567-0.442 0.713 2.315 2.165 5.099 2.688 1.825 0.342 2.163 0.226 2.44-0.837 0.183-0.7 0.763-1.103 1.593-1.247l10.926 9.015c-0.154 0.241-0.252 0.472-0.252 0.639 0 1.174 1.961 2.785 3.387 2.785 0.924 0 2.488 1.174 5.234 3.941l-91.562-4.305z" fill="#db2f00"/><path d="m337.65 116.32c2.876-2.492 12.539-4.664 17.187-4.234l-14.806 18.668z" fill="#fa6800"/><path d="m393.19 63.732-29.582 37.3c-0.255-0.913-0.407-2.107-0.352-2.941 0.091-1.358-0.204-2.056-1.06-2.514-1.493-0.799-4.037-0.824-4.519-0.044-0.454 0.736-4.544 0.745-7.673 0.021-3.7-0.859-7.303 0.2-10.024 2.949-1.754 1.769-2.632 2.252-3.641 1.999-0.495-0.124-0.94-0.101-1.286 0.05l-4.55-27.574z" fill="#fa6800"/><path d="m297.79 94.781-2.449-2.065c-2.418-2.039-3.419-2.508-5.35-2.508-1.666 0-2.611 0.337-3.165 1.128-1.024 1.462-5.857 1.949-6.262 0.632-0.148-0.48-0.767-1.989-1.376-3.355-0.608-1.365-1.107-2.762-1.107-3.106s-0.232-0.625-0.516-0.625c-0.283 0-0.692-1.398-0.908-3.107-0.178-1.409-0.327-2.538-0.468-3.448l54.308-5.349z" fill="#f64d00"/><path d="m559.75 91.744c2.572-0.842 3.25-0.88 4.059-0.231 0.533 0.427 2.035 1.307 3.337 1.955 3.774 1.88 4.725 3.025 4.811 5.8 0.037 1.21 0.261 3.061 0.518 4.374l-13.952-11.512c0.352-0.104 0.752-0.231 1.227-0.386" fill="#ca1500"/><path d="m590.08 114.22c2.49 2.491 2.584 2.759 1.332 3.798-0.25 0.208-0.474 0.467-0.637 0.718l-10.926-9.015c2.468-0.431 7.155 1.419 10.231 4.499" fill="#ca1500"/><path d="m583.51 52.331c0.143 4e-3 0.288 7e-3 0.433 7e-3 2.729 0 3.528 0.258 4.918 1.589 0.912 0.875 1.658 2.057 1.658 2.629 0 0.57 0.268 1.201 0.592 1.403 0.327 0.201 0.592 2.859 0.592 5.931 0 4.824 0.147 5.645 1.103 6.156 1.469 0.786 2.823 4.048 2.014 4.855-0.916 0.917-20.244 1.324-21.855 0.461-1.521-0.813-3.156-0.357-3.156 0.881 0 1.743-2.678 4.944-4.734 5.654-3.902 1.351-5.624 2.314-7.338 4.106-1.126 1.176-2.401 1.845-4.052 2.136l-29.929-24.695z" fill="#ca1500"/><path d="m539.86 35.383c0.397 0.03 0.817 0.061 1.264 0.094 6.739 0.491 8.604 1.139 11.556 4.015l2.103 2.05 4.997-1.689c2.75-0.932 5.33-1.698 5.738-1.705 0.498-8e-3 0.74 0.985 0.74 3.038 0 2.361 0.341 3.5 1.513 5.036 1.896 2.485 5.449 4.335 8.374 4.359 1.234 0.01 2.76 0.409 3.392 0.888 0.636 0.479 2.199 0.815 3.972 0.862l-59.754 11.113z" fill="#c80b00"/><path d="m488.36 39.134 0.78 7e-3 14.135 0.117 0.776-1.752c0.94-2.128 2.864-3.331 3.809-2.384 0.356 0.356 1.385 0.647 2.287 0.647 1.923 0 7.661-2.504 8.754-3.822 0.297-0.358 0.858-0.667 1.418-0.816l3.44 32.313z" fill="#e21c00"/><path d="m393.19 63.732 3.335-25.772c2.22-0.741 4.803-2.112 5.997-3.307 1.017-1.017 4.566-0.84 4.566 0.229 0 0.487 0.357 0.887 0.795 0.887 0.437 0 1.273 0.528 1.857 1.172 0.832 0.918 0.91 1.354 0.365 2.011-0.552 0.664-0.404 1.18 0.706 2.471 1.281 1.489 1.727 1.619 5.142 1.517 2.058-0.061 3.959-0.247 4.226-0.412s1.134 0.126 1.927 0.645c0.955 0.627 1.57 0.733 1.827 0.321 0.212-0.345 0.995-0.624 1.741-0.624 0.744 0 2.487-0.82 3.87-1.822l2.515-1.822-2.692-2.866h2.061c1.72 0 2.743-0.635 6.17-3.836 3.777-3.527 4.32-3.836 6.769-3.854 1.465-9e-3 3.237-0.172 3.938-0.36 0.977-0.264 1.373-0.02 1.697 1.044 0.62 2.033 2.066 3.457 3.51 3.457 3.727 0 2.272 4.393-2.127 6.423-1.512 0.698-2.992 1.269-3.292 1.269-0.994 0-3.726 3.299-3.726 4.5 0 1.487 1.088 2.601 2.543 2.601 0.617 0 2.313-1.049 3.768-2.33 2.203-1.94 3.209-2.39 6.009-2.697 1.848-0.203 3.973-0.62 4.72-0.926 0.748-0.306 1.977-0.556 2.732-0.556 0.853 0 2.531-1.143 4.453-3.034l3.08-3.033 1.668 1.997 1.668 1.998 13.357 0.111 35.399 24.31z" fill="#f24600"/><path d="m302.26 26.328c0.837-0.94 1.228-2.068 0.946-3.194-0.199-0.79-0.14-1.572 0.13-1.737 0.271-0.165 2.822-0.491 5.67-0.726l5.178-0.428v1.439c0 1.984 3.08 4.782 6.092 5.534 1.507 0.376 2.724 1.107 3.099 1.859 0.34 0.683 0.939 1.627 1.33 2.099 0.823 0.993 0.384 1.637-1.118 1.637-1.46 0-1.819 0.821-1.138 2.613 0.448 1.179 0.991 1.528 2.371 1.528 1.875 0 2.234 0.503 1.139 1.598-1.171 1.172 0.068 4.194 3 7.316 2.55 2.717 3.045 3 4.635 2.652 1.041-0.23 1.94-0.131 2.167 0.235 0.13 0.21 0.422 0.397 0.759 0.511l-6.017 23.714z" fill="#e94c00"/><path d="m224.41 38.336c-1.459 0.236-1.951 0.099-1.951-0.547 0-0.474-0.695-1.18-1.544-1.566-1.291-0.588-1.661-0.544-2.256 0.268-1.242 1.699-3.666 1.887-6.826 0.528-1.599-0.688-3.374-1.251-3.943-1.251-1.758 0-3.775-2.388-3.775-4.469 0-1.042-0.385-2.214-0.854-2.606-0.681-0.564-0.718-1.008-0.181-2.187 0.645-1.414 0.832-1.461 4.257-1.073 4.135 0.47 4.923 0.946 5.176 3.129 0.261 2.266 2.873 2.498 4.932 0.439 0.835-0.835 1.777-1.518 2.094-1.518s1.599-0.644 2.848-1.433c1.749-1.105 2.42-2.015 2.911-3.953 0.422-1.66 0.443-2.886 0.063-3.596-0.398-0.743-0.371-1.077 0.085-1.077 0.365 0 0.542-0.333 0.395-0.74-0.148-0.407 0.137-1.206 0.633-1.776v2e-3c1.252-1.436 2.188-1.296 3.366 0.503 0.735 1.121 1.383 1.467 2.391 1.274 0.186-0.036 0.387-0.041 0.596-0.024l-6.305 21.816c-0.511-0.25-1.184-0.294-2.112-0.143" fill="#dd1c00"/><path d="m276.19 78.327c-0.502-3.232-0.906-3.693-2.176-4.151-3.128-1.131-4.053-1.866-4.828-3.843-0.543-1.384-1.177-2.022-2.014-2.028-2.668-0.017-3.818-0.74-4.705-2.959-0.497-1.242-1.214-2.45-1.592-2.682-0.86-0.533-6.102-0.56-6.948-0.038-0.345 0.213-1.375-0.551-2.29-1.695-1.107-1.389-2.158-2.085-3.145-2.085-1.576 0-2.489-1.455-3.247-5.17-0.444-2.174-0.772-2.454-4.37-3.714-2.074-0.728-2.721-1.305-3.254-2.901-0.422-1.268-1.372-2.373-2.601-3.028-1.066-0.566-2.633-1.726-3.484-2.576-0.85-0.851-2.01-1.547-2.577-1.547-0.566 0-1.383-0.426-1.815-0.945-0.175-0.211-0.382-0.369-0.623-0.486l6.305-21.816c0.755 0.058 1.633 0.434 2.425 1.066 1.417 1.129 1.62 1.674 1.498 4.04-0.204 3.93 0.702 5.341 3.172 4.941 2.027-0.329 3.243 0.484 4.027 2.697 0.215 0.605 0.971 1.036 1.818 1.036 0.797 0 2.264 0.466 3.259 1.036 1.538 0.879 1.997 0.918 3.063 0.255 1.072-0.667 1.419-0.631 2.389 0.247 0.656 0.594 0.999 1.459 0.811 2.049-0.178 0.563 0.085 1.431 0.584 1.93s0.907 1.326 0.907 1.838c0 0.69 0.61 0.93 2.367 0.93 1.356 0 2.367-0.284 2.367-0.665 0-0.431 0.344-0.38 0.984 0.148 0.767 0.634 1.039 0.65 1.233 0.073 0.137-0.407 1.01-0.74 1.94-0.74s1.836-0.234 2.013-0.521c0.395-0.639 5.693-0.127 6.67 0.644 1.26 0.999 7.197-0.13 9.097-1.729 0.953-0.802 1.734-1.825 1.734-2.273 0-0.614 0.51-0.514 2.075 0.41 2.304 1.359 3.836 1.151 3.579-0.488-0.091-0.591 0.662-1.936 1.676-2.99 1.41-1.468 2.345-1.916 3.993-1.923 2.389-7e-3 4.536-0.981 5.748-2.346l28.243 46.65z" fill="#ed4100"/><path d="m330.5 72.978 6.017-23.714c0.213 0.072 0.445 0.115 0.666 0.115 0.57 0 1.82 0.826 2.776 1.836 1.702 1.799 1.821 1.828 5.806 1.468 2.501-0.226 4.354-0.131 4.81 0.248 0.463 0.384 1.269 0.422 2.145 0.098 1.61-0.594 5.694-0.225 6.177 0.558 0.423 0.683 3.048 0.683 3.47 0 0.179-0.29 1.015-0.699 1.859-0.912 0.842-0.211 2.642-1.088 3.999-1.948 2.543-1.613 8.818-7.505 10.577-9.778l14.385 22.783z" fill="#f55e00"/><path d="m378.8 40.949c0.298-0.384 0.47-0.667 0.47-0.806 0-0.815 2.133-1.468 3.312-1.016 0.457 0.175 0.831 0.821 0.831 1.436 0 0.927 0.343 1.072 2.031 0.856 1.118-0.143 3.137-0.823 4.487-1.513 1.35-0.689 3.298-1.326 4.329-1.418 0.639-0.056 1.425-0.249 2.26-0.528l-3.335 25.772z" fill="#f15700"/><path d="m523.36 29.852c1.635-1.808 3.268-1.417 6.509 1.555 3.488 3.198 4.036 3.518 9.995 3.976l-16.105 28.061-3.44-32.313c0.225-0.06 0.448-0.096 0.655-0.096 0.722 0 1.796-0.533 2.386-1.183" fill="#cf1300"/></g></g></svg>
